# xmcd
#
# Track frame offsets:
#	150
#	11377
#	24975
#	36822
#	47992
#	61200
#	72787
#	88380
#	99887
#	113145
#	126990
#	138677
#	150235
#	161652
#	174590
#	185550
#	198432
#	212590
#	227775
#	241305
#	251997
#	263255
#	276732
#	291265
#	306617
#	318242
#	329877
#	341422
#
# Disc length: 4709
#
# Revision: 1
# Processed by: cddbd v1.5.1PL0 Copyright (c) Steve Scherf et al.
# Submitted via: VisiTrax 2.9.5.180 - For more info visit www.synapsa.com
# Normalized: r0:DSETVAR1
#
DISCID=a412631c
DTITLE=Various Artist - Hank Williams Songwriter to legend
DYEAR=1998
DGENRE=
TTITLE0=Roscoe Hankins - (I'm paying for the day when) Peace will come
TTITLE1=Braxton Shooford - Rockin' chair daddy
TTITLE2=Rome Johnson - If I didn't love you
TTITLE3=Red Sovine - You're barking up the wrong tree now
TTITLE4=Jimmie Davis - Forever is a long long time
TTITLE5=Curley Willims - Honey do you love me huh
TTITLE6=George Morgan - A stranger in the night
TTITLE7=Little Jimmy Dickens - I wish you didn't love me so much
TTITLE8=Carl Smith - Me and my broken heart
TTITLE9=Big Bill Lister - The little house we built (just o'er the hill)
TTITLE10=Jimmie Davis - Bayou pon pon
TTITLE11=Ray Price - I lost the only love I knew
TTITLE12=Big Bill Lister - Countrified
TTITLE13=Molly O'Day - On the evening train
TTITLE14=Red Kirk - Never been so lonesome
TTITLE15=Kitty Wells - My cold cold heart is melted now
TTITLE16=Jimmy Swan - The last letter
TTITLE17=Marvin Rainwater - Heart's hall of fame
TTITLE18=Arthur' guitar Boogie' Smith - In memory of Hank Williams
TTITLE19=Johnnie and Jack - Hank Williams will live forever
TTITLE20=Jimmie Logsdon - Hank Williams sings the blues no more
TTITLE21=Jimmie Skinner - Singing teacher in heaven
TTITLE22=Ernest Tubb - Hank, it will never be the same without you
TTITLE23=Riley Crabtree - When Hank Williams met Jimmie Rodgers
TTITLE24=Denver Duke and Jeffrey Null - Hank Williams, that Alabama boy
TTITLE25=The Cochran Brothers - Two blue singing star
TTITLE26=Rex Griffin - Lovesick blues
TTITLE27=? - Mystery bonus track
EXTD=
EXTT0=
EXTT1=
EXTT2=
EXTT3=
EXTT4=
EXTT5=
EXTT6=
EXTT7=
EXTT8=
EXTT9=
EXTT10=
EXTT11=
EXTT12=
EXTT13=
EXTT14=
EXTT15=
EXTT16=
EXTT17=
EXTT18=
EXTT19=
EXTT20=
EXTT21=
EXTT22=
EXTT23=
EXTT24=
EXTT25=
EXTT26=
EXTT27=
PLAYORDER=
